<svg width="1049" height="1049" viewBox="0 0 1049 1049" fill="none" xmlns="http://www.w3.org/2000/svg">
<rect width="1049" height="1049" rx="204" fill="#1E50A0"/>
<rect x="12" y="13" width="1024" height="1024" rx="200" fill="#D22F27"/>
<g opacity="0.1">
<path d="M414.733 208.267H713.024V257.096H414.733V208.267Z" stroke="#1E50A0" stroke-width="26.2627" stroke-linecap="round" stroke-linejoin="round"/>
<path d="M456.958 258.246H666.923V341.544H456.958V258.246Z" stroke="#1E50A0" stroke-width="26.2627" stroke-linecap="round" stroke-linejoin="round"/>
<path d="M365.003 208.267H762.733L588.728 109.175H539.008L365.003 208.267Z" stroke="#1E50A0" stroke-width="26.2627" stroke-linecap="round" stroke-linejoin="round"/>
<path d="M302.861 424.842H824.877L666.927 341.544H456.962L302.861 424.842Z" stroke="#1E50A0" stroke-width="26.2627" stroke-linecap="round" stroke-linejoin="round"/>
<path d="M561.585 107.726V50" stroke="#1E50A0" stroke-width="26.2627" stroke-linecap="round" stroke-linejoin="round"/>
<path d="M316.982 424.842H806.901V491.481H316.982V424.842Z" stroke="#1E50A0" stroke-width="26.2627" stroke-linecap="round" stroke-linejoin="round"/>
<path d="M694.92 558.12H428.964L389.868 491.481H736.913L694.92 558.12Z" stroke="#1E50A0" stroke-width="26.2627" stroke-linecap="round" stroke-linejoin="round"/>
<path d="M428.964 558.12H694.92V608.099H428.964V558.12Z" stroke="#1E50A0" stroke-width="26.2627" stroke-linecap="round" stroke-linejoin="round"/>
<path d="M694.919 608.099H428.963L205 724.716H911.883L694.919 608.099Z" stroke="#1E50A0" stroke-width="26.2627" stroke-linecap="round" stroke-linejoin="round"/>
<path d="M246.993 724.716H876.889V791.355H246.993V724.716Z" stroke="#1E50A0" stroke-width="26.2627" stroke-linecap="round" stroke-linejoin="round"/>
<path d="M330.979 791.355H778.904V874.653H330.979V791.355Z" stroke="#1E50A0" stroke-width="26.2627" stroke-linecap="round" stroke-linejoin="round"/>
<path d="M386.97 874.653H722.914V957.952H386.97V874.653Z" stroke="#1E50A0" stroke-width="26.2627" stroke-linecap="round" stroke-linejoin="round"/>
<path d="M330.979 957.951H764.907V1024.59H330.979V957.951Z" stroke="#1E50A0" stroke-width="26.2627" stroke-linecap="round" stroke-linejoin="round"/>
<path d="M265.584 1026.31H837.305" stroke="#1E50A0" stroke-width="26.2627" stroke-linecap="round" stroke-linejoin="round"/>
<path d="M386.97 874.653V791.355" stroke="#1E50A0" stroke-width="26.2627" stroke-linecap="round" stroke-linejoin="round"/>
<path d="M456.958 957.952V791.355" stroke="#1E50A0" stroke-width="26.2627" stroke-linecap="round" stroke-linejoin="round"/>
<path d="M526.946 957.952V791.355" stroke="#1E50A0" stroke-width="26.2627" stroke-linecap="round" stroke-linejoin="round"/>
<path d="M596.936 957.952V791.355" stroke="#1E50A0" stroke-width="26.2627" stroke-linecap="round" stroke-linejoin="round"/>
<path d="M666.924 957.952V791.355" stroke="#1E50A0" stroke-width="26.2627" stroke-linecap="round" stroke-linejoin="round"/>
<path d="M722.914 874.653V791.355" stroke="#1E50A0" stroke-width="26.2627" stroke-linecap="round" stroke-linejoin="round"/>
<path d="M470.956 541.46V508.141" stroke="#1E50A0" stroke-width="26.2627" stroke-linecap="round" stroke-linejoin="round"/>
<path d="M526.946 541.46V508.141" stroke="#1E50A0" stroke-width="26.2627" stroke-linecap="round" stroke-linejoin="round"/>
<path d="M582.938 541.46V508.141" stroke="#1E50A0" stroke-width="26.2627" stroke-linecap="round" stroke-linejoin="round"/>
<path d="M638.928 541.46V508.141" stroke="#1E50A0" stroke-width="26.2627" stroke-linecap="round" stroke-linejoin="round"/>
</g>
<path d="M488.723 192.715C488.723 187.32 484.856 183.222 480.62 184.125L372.632 207.132C369.293 207.843 366.851 211.473 366.851 215.722V875.442C366.851 880.252 369.959 884.155 373.794 884.155H481.78C485.616 884.155 488.723 880.252 488.723 875.442V628.484C488.723 553.249 520.519 506.643 547.012 506.643C570.857 506.643 577.745 536.607 577.745 581.879V875.442C577.745 880.252 580.853 884.155 584.689 884.155H693.206C697.042 884.155 700.149 880.252 700.149 875.442V559.91C700.149 457.376 669.417 391.46 589.404 391.46C557.289 391.46 525.949 401.162 500.979 422.638C496.021 426.903 488.723 422.704 488.723 415.156V192.715Z" fill="white"/>
<path d="M488.723 192.715C488.723 187.32 484.856 183.222 480.62 184.125L372.632 207.132C369.293 207.843 366.851 211.473 366.851 215.722V875.442C366.851 880.252 369.959 884.155 373.794 884.155H481.78C485.616 884.155 488.723 880.252 488.723 875.442V628.484C488.723 553.249 520.519 506.643 547.012 506.643C570.857 506.643 577.745 536.607 577.745 581.879V875.442C577.745 880.252 580.853 884.155 584.689 884.155H693.206C697.042 884.155 700.149 880.252 700.149 875.442V559.91C700.149 457.376 669.417 391.46 589.404 391.46C557.289 391.46 525.949 401.162 500.979 422.638C496.021 426.903 488.723 422.704 488.723 415.156V192.715Z" fill="url(#paint0_linear_17_9)" fill-opacity="0.1"/>
<path d="M752.757 659.629C752.757 658.105 751.75 656.947 750.648 657.202L722.544 663.703C721.675 663.904 721.039 664.93 721.039 666.13L724.842 874.454C724.842 880.178 762.53 880.251 763.528 880.251L764.331 852.546C765.33 852.546 755.946 851.156 755.946 849.797V782.285C755.946 761.026 750.648 745.96 767.926 748.335C774.132 748.335 775.925 756.802 775.925 769.594L774.106 849.797C774.106 851.156 763.333 852.546 764.331 852.546L763.528 880.251C763.528 880.251 811.911 883.333 807.781 852.546V763.386C807.781 734.414 799.782 715.788 778.959 715.788C770.601 715.788 762.445 718.53 755.946 724.598C754.656 725.803 752.757 724.616 752.757 722.484V659.629Z" fill="white"/>
<path d="M752.757 659.629C752.757 658.105 751.75 656.947 750.648 657.202L722.544 663.703C721.675 663.904 721.039 664.93 721.039 666.13L724.842 874.454C724.842 880.178 762.53 880.251 763.528 880.251L764.331 852.546C765.33 852.546 755.946 851.156 755.946 849.797V782.285C755.946 761.026 750.648 745.96 767.926 748.335C774.132 748.335 775.925 756.802 775.925 769.594L774.106 849.797C774.106 851.156 763.333 852.546 764.331 852.546L763.528 880.251C763.528 880.251 811.911 883.333 807.781 852.546V763.386C807.781 734.414 799.782 715.788 778.959 715.788C770.601 715.788 762.445 718.53 755.946 724.598C754.656 725.803 752.757 724.616 752.757 722.484V659.629Z" fill="url(#paint1_linear_17_9)" fill-opacity="0.1"/>
<defs>
<linearGradient id="paint0_linear_17_9" x1="-629.151" y1="2098" x2="1515.47" y2="1744.98" gradientUnits="userSpaceOnUse">
<stop stop-color="#E75B25"/>
<stop offset="1" stop-color="#F3B297"/>
</linearGradient>
<linearGradient id="paint1_linear_17_9" x1="461.828" y1="1198" x2="1022.21" y2="1113.04" gradientUnits="userSpaceOnUse">
<stop stop-color="#E75B25"/>
<stop offset="1" stop-color="#F3B297"/>
</linearGradient>
</defs>
</svg>
