<svg width="1049" height="1049" viewBox="0 0 1049 1049" fill="none" xmlns="http://www.w3.org/2000/svg">
<rect width="1049" height="1049" rx="204" fill="#1E50A0"/>
<rect x="12" y="13" width="1024" height="1024" rx="200" fill="#D22F27"/>
<g opacity="0.3">
<path d="M378.733 208.267H677.024V257.096H378.733V208.267Z" stroke="#1E50A0" stroke-width="26.2627" stroke-linecap="round" stroke-linejoin="round"/>
<path d="M420.958 258.246H630.923V341.544H420.958V258.246Z" stroke="#1E50A0" stroke-width="26.2627" stroke-linecap="round" stroke-linejoin="round"/>
<path d="M329.003 208.267H726.733L552.728 109.175H503.008L329.003 208.267Z" stroke="#1E50A0" stroke-width="26.2627" stroke-linecap="round" stroke-linejoin="round"/>
<path d="M266.861 424.842H788.877L630.927 341.544H420.962L266.861 424.842Z" stroke="#1E50A0" stroke-width="26.2627" stroke-linecap="round" stroke-linejoin="round"/>
<path d="M525.585 107.726V50" stroke="#1E50A0" stroke-width="26.2627" stroke-linecap="round" stroke-linejoin="round"/>
<path d="M280.982 424.842H770.901V491.481H280.982V424.842Z" stroke="#1E50A0" stroke-width="26.2627" stroke-linecap="round" stroke-linejoin="round"/>
<path d="M658.92 558.12H392.964L353.868 491.481H700.913L658.92 558.12Z" stroke="#1E50A0" stroke-width="26.2627" stroke-linecap="round" stroke-linejoin="round"/>
<path d="M392.964 558.12H658.92V608.099H392.964V558.12Z" stroke="#1E50A0" stroke-width="26.2627" stroke-linecap="round" stroke-linejoin="round"/>
<path d="M658.919 608.099H392.963L169 724.716H875.883L658.919 608.099Z" stroke="#1E50A0" stroke-width="26.2627" stroke-linecap="round" stroke-linejoin="round"/>
<path d="M210.993 724.716H840.889V791.355H210.993V724.716Z" stroke="#1E50A0" stroke-width="26.2627" stroke-linecap="round" stroke-linejoin="round"/>
<path d="M294.979 791.355H742.904V874.653H294.979V791.355Z" stroke="#1E50A0" stroke-width="26.2627" stroke-linecap="round" stroke-linejoin="round"/>
<path d="M350.97 874.653H686.914V957.952H350.97V874.653Z" stroke="#1E50A0" stroke-width="26.2627" stroke-linecap="round" stroke-linejoin="round"/>
<path d="M294.979 957.951H728.907V1024.59H294.979V957.951Z" stroke="#1E50A0" stroke-width="26.2627" stroke-linecap="round" stroke-linejoin="round"/>
<path d="M229.584 1026.31H801.305" stroke="#1E50A0" stroke-width="26.2627" stroke-linecap="round" stroke-linejoin="round"/>
<path d="M350.97 874.653V791.355" stroke="#1E50A0" stroke-width="26.2627" stroke-linecap="round" stroke-linejoin="round"/>
<path d="M420.958 957.952V791.355" stroke="#1E50A0" stroke-width="26.2627" stroke-linecap="round" stroke-linejoin="round"/>
<path d="M490.946 957.952V791.355" stroke="#1E50A0" stroke-width="26.2627" stroke-linecap="round" stroke-linejoin="round"/>
<path d="M560.936 957.952V791.355" stroke="#1E50A0" stroke-width="26.2627" stroke-linecap="round" stroke-linejoin="round"/>
<path d="M630.924 957.952V791.355" stroke="#1E50A0" stroke-width="26.2627" stroke-linecap="round" stroke-linejoin="round"/>
<path d="M686.914 874.653V791.355" stroke="#1E50A0" stroke-width="26.2627" stroke-linecap="round" stroke-linejoin="round"/>
<path d="M434.956 541.46V508.141" stroke="#1E50A0" stroke-width="26.2627" stroke-linecap="round" stroke-linejoin="round"/>
<path d="M490.946 541.46V508.141" stroke="#1E50A0" stroke-width="26.2627" stroke-linecap="round" stroke-linejoin="round"/>
<path d="M546.938 541.46V508.141" stroke="#1E50A0" stroke-width="26.2627" stroke-linecap="round" stroke-linejoin="round"/>
<path d="M602.928 541.46V508.141" stroke="#1E50A0" stroke-width="26.2627" stroke-linecap="round" stroke-linejoin="round"/>
</g>
<path d="M488.723 192.715C488.723 187.32 484.856 183.222 480.62 184.125L372.632 207.132C369.293 207.843 366.851 211.473 366.851 215.722V875.442C366.851 880.252 369.959 884.155 373.794 884.155H481.78C485.616 884.155 488.723 880.252 488.723 875.442V628.484C488.723 553.249 520.519 506.643 547.012 506.643C570.857 506.643 577.745 536.607 577.745 581.879V875.442C577.745 880.252 580.853 884.155 584.689 884.155H693.206C697.042 884.155 700.149 880.252 700.149 875.442V559.91C700.149 457.376 669.417 391.46 589.404 391.46C557.289 391.46 525.949 401.162 500.979 422.638C496.021 426.903 488.723 422.704 488.723 415.156V192.715Z" fill="white"/>
<path d="M488.723 192.715C488.723 187.32 484.856 183.222 480.62 184.125L372.632 207.132C369.293 207.843 366.851 211.473 366.851 215.722V875.442C366.851 880.252 369.959 884.155 373.794 884.155H481.78C485.616 884.155 488.723 880.252 488.723 875.442V628.484C488.723 553.249 520.519 506.643 547.012 506.643C570.857 506.643 577.745 536.607 577.745 581.879V875.442C577.745 880.252 580.853 884.155 584.689 884.155H693.206C697.042 884.155 700.149 880.252 700.149 875.442V559.91C700.149 457.376 669.417 391.46 589.404 391.46C557.289 391.46 525.949 401.162 500.979 422.638C496.021 426.903 488.723 422.704 488.723 415.156V192.715Z" fill="url(#paint0_linear_17_12)" fill-opacity="0.1"/>
<path d="M765.757 672.629C765.757 671.105 764.75 669.947 763.648 670.202L735.544 676.703C734.675 676.904 734.039 677.93 734.039 679.13L737.842 887.454C737.842 893.178 775.53 893.251 776.528 893.251L777.331 865.546C778.33 865.546 768.946 864.156 768.946 862.797V795.285C768.946 774.026 763.648 758.96 780.926 761.335C787.132 761.335 788.925 769.802 788.925 782.594L787.106 862.797C787.106 864.156 776.333 865.546 777.331 865.546L776.528 893.251C776.528 893.251 824.911 896.333 820.781 865.546V776.386C820.781 747.414 812.782 728.788 791.959 728.788C783.601 728.788 775.445 731.53 768.946 737.598C767.656 738.803 765.757 737.616 765.757 735.484V672.629Z" fill="white"/>
<path d="M765.757 672.629C765.757 671.105 764.75 669.947 763.648 670.202L735.544 676.703C734.675 676.904 734.039 677.93 734.039 679.13L737.842 887.454C737.842 893.178 775.53 893.251 776.528 893.251L777.331 865.546C778.33 865.546 768.946 864.156 768.946 862.797V795.285C768.946 774.026 763.648 758.96 780.926 761.335C787.132 761.335 788.925 769.802 788.925 782.594L787.106 862.797C787.106 864.156 776.333 865.546 777.331 865.546L776.528 893.251C776.528 893.251 824.911 896.333 820.781 865.546V776.386C820.781 747.414 812.782 728.788 791.959 728.788C783.601 728.788 775.445 731.53 768.946 737.598C767.656 738.803 765.757 737.616 765.757 735.484V672.629Z" fill="url(#paint1_linear_17_12)" fill-opacity="0.1"/>
<defs>
<linearGradient id="paint0_linear_17_12" x1="-629.151" y1="2098" x2="1515.47" y2="1744.98" gradientUnits="userSpaceOnUse">
<stop stop-color="#E75B25"/>
<stop offset="1" stop-color="#F3B297"/>
</linearGradient>
<linearGradient id="paint1_linear_17_12" x1="474.828" y1="1211" x2="1035.21" y2="1126.04" gradientUnits="userSpaceOnUse">
<stop stop-color="#E75B25"/>
<stop offset="1" stop-color="#F3B297"/>
</linearGradient>
</defs>
</svg>
