<svg width="1049" height="1049" viewBox="0 0 1049 1049" fill="none" xmlns="http://www.w3.org/2000/svg">
<rect width="1049" height="1049" rx="204" fill="#D22F27"/>
<rect x="12" y="13" width="1024" height="1024" rx="200" fill="#1E50A0"/>
<g opacity="0.1">
<path d="M396.733 208.267H695.024V257.096H396.733V208.267Z" stroke="#D22F27" stroke-width="26.2627" stroke-linecap="round" stroke-linejoin="round"/>
<path d="M438.958 258.246H648.923V341.544H438.958V258.246Z" stroke="#D22F27" stroke-width="26.2627" stroke-linecap="round" stroke-linejoin="round"/>
<path d="M347.003 208.267H744.733L570.728 109.175H521.008L347.003 208.267Z" stroke="#D22F27" stroke-width="26.2627" stroke-linecap="round" stroke-linejoin="round"/>
<path d="M284.861 424.842H806.877L648.927 341.544H438.962L284.861 424.842Z" stroke="#D22F27" stroke-width="26.2627" stroke-linecap="round" stroke-linejoin="round"/>
<path d="M543.585 107.726V50" stroke="#D22F27" stroke-width="26.2627" stroke-linecap="round" stroke-linejoin="round"/>
<path d="M298.982 424.842H788.901V491.481H298.982V424.842Z" stroke="#D22F27" stroke-width="26.2627" stroke-linecap="round" stroke-linejoin="round"/>
<path d="M676.92 558.12H410.964L371.868 491.481H718.913L676.92 558.12Z" stroke="#D22F27" stroke-width="26.2627" stroke-linecap="round" stroke-linejoin="round"/>
<path d="M410.964 558.12H676.92V608.099H410.964V558.12Z" stroke="#D22F27" stroke-width="26.2627" stroke-linecap="round" stroke-linejoin="round"/>
<path d="M676.919 608.099H410.963L187 724.716H893.883L676.919 608.099Z" stroke="#D22F27" stroke-width="26.2627" stroke-linecap="round" stroke-linejoin="round"/>
<path d="M228.993 724.716H858.889V791.355H228.993V724.716Z" stroke="#D22F27" stroke-width="26.2627" stroke-linecap="round" stroke-linejoin="round"/>
<path d="M312.979 791.355H760.904V874.653H312.979V791.355Z" stroke="#D22F27" stroke-width="26.2627" stroke-linecap="round" stroke-linejoin="round"/>
<path d="M368.97 874.653H704.914V957.952H368.97V874.653Z" stroke="#D22F27" stroke-width="26.2627" stroke-linecap="round" stroke-linejoin="round"/>
<path d="M312.979 957.951H746.907V1024.59H312.979V957.951Z" stroke="#D22F27" stroke-width="26.2627" stroke-linecap="round" stroke-linejoin="round"/>
<path d="M247.584 1026.31H819.305" stroke="#D22F27" stroke-width="26.2627" stroke-linecap="round" stroke-linejoin="round"/>
<path d="M368.97 874.653V791.355" stroke="#D22F27" stroke-width="26.2627" stroke-linecap="round" stroke-linejoin="round"/>
<path d="M438.958 957.952V791.355" stroke="#D22F27" stroke-width="26.2627" stroke-linecap="round" stroke-linejoin="round"/>
<path d="M508.946 957.952V791.355" stroke="#D22F27" stroke-width="26.2627" stroke-linecap="round" stroke-linejoin="round"/>
<path d="M578.936 957.952V791.355" stroke="#D22F27" stroke-width="26.2627" stroke-linecap="round" stroke-linejoin="round"/>
<path d="M648.924 957.952V791.355" stroke="#D22F27" stroke-width="26.2627" stroke-linecap="round" stroke-linejoin="round"/>
<path d="M704.914 874.653V791.355" stroke="#D22F27" stroke-width="26.2627" stroke-linecap="round" stroke-linejoin="round"/>
<path d="M452.956 541.46V508.141" stroke="#D22F27" stroke-width="26.2627" stroke-linecap="round" stroke-linejoin="round"/>
<path d="M508.946 541.46V508.141" stroke="#D22F27" stroke-width="26.2627" stroke-linecap="round" stroke-linejoin="round"/>
<path d="M564.938 541.46V508.141" stroke="#D22F27" stroke-width="26.2627" stroke-linecap="round" stroke-linejoin="round"/>
<path d="M620.928 541.46V508.141" stroke="#D22F27" stroke-width="26.2627" stroke-linecap="round" stroke-linejoin="round"/>
</g>
<path d="M488.723 192.715C488.723 187.32 484.856 183.222 480.62 184.125L372.632 207.132C369.293 207.843 366.851 211.473 366.851 215.722V875.442C366.851 880.252 369.959 884.155 373.794 884.155H481.78C485.616 884.155 488.723 880.252 488.723 875.442V628.484C488.723 553.249 520.519 506.643 547.012 506.643C570.857 506.643 577.745 536.607 577.745 581.879V875.442C577.745 880.252 580.853 884.155 584.689 884.155H693.206C697.042 884.155 700.149 880.252 700.149 875.442V559.91C700.149 457.376 669.417 391.46 589.404 391.46C557.289 391.46 525.949 401.162 500.979 422.638C496.021 426.903 488.723 422.704 488.723 415.156V192.715Z" fill="white"/>
<path d="M488.723 192.715C488.723 187.32 484.856 183.222 480.62 184.125L372.632 207.132C369.293 207.843 366.851 211.473 366.851 215.722V875.442C366.851 880.252 369.959 884.155 373.794 884.155H481.78C485.616 884.155 488.723 880.252 488.723 875.442V628.484C488.723 553.249 520.519 506.643 547.012 506.643C570.857 506.643 577.745 536.607 577.745 581.879V875.442C577.745 880.252 580.853 884.155 584.689 884.155H693.206C697.042 884.155 700.149 880.252 700.149 875.442V559.91C700.149 457.376 669.417 391.46 589.404 391.46C557.289 391.46 525.949 401.162 500.979 422.638C496.021 426.903 488.723 422.704 488.723 415.156V192.715Z" fill="url(#paint0_linear_17_10)" fill-opacity="0.1"/>
<path d="M755.757 658.629C755.757 657.105 754.75 655.947 753.648 656.202L725.544 662.703C724.675 662.904 724.039 663.93 724.039 665.13L727.842 873.454C727.842 879.178 765.53 879.251 766.528 879.251L767.331 851.546C768.33 851.546 758.946 850.156 758.946 848.797V781.285C758.946 760.026 753.648 744.96 770.926 747.335C777.132 747.335 778.925 755.802 778.925 768.594L777.106 848.797C777.106 850.156 766.333 851.546 767.331 851.546L766.528 879.251C766.528 879.251 814.911 882.333 810.781 851.546V762.386C810.781 733.414 802.782 714.788 781.959 714.788C773.601 714.788 765.445 717.53 758.946 723.598C757.656 724.803 755.757 723.616 755.757 721.484V658.629Z" fill="white"/>
<path d="M755.757 658.629C755.757 657.105 754.75 655.947 753.648 656.202L725.544 662.703C724.675 662.904 724.039 663.93 724.039 665.13L727.842 873.454C727.842 879.178 765.53 879.251 766.528 879.251L767.331 851.546C768.33 851.546 758.946 850.156 758.946 848.797V781.285C758.946 760.026 753.648 744.96 770.926 747.335C777.132 747.335 778.925 755.802 778.925 768.594L777.106 848.797C777.106 850.156 766.333 851.546 767.331 851.546L766.528 879.251C766.528 879.251 814.911 882.333 810.781 851.546V762.386C810.781 733.414 802.782 714.788 781.959 714.788C773.601 714.788 765.445 717.53 758.946 723.598C757.656 724.803 755.757 723.616 755.757 721.484V658.629Z" fill="url(#paint1_linear_17_10)" fill-opacity="0.1"/>
<defs>
<linearGradient id="paint0_linear_17_10" x1="-629.151" y1="2098" x2="1515.47" y2="1744.98" gradientUnits="userSpaceOnUse">
<stop stop-color="#E75B25"/>
<stop offset="1" stop-color="#F3B297"/>
</linearGradient>
<linearGradient id="paint1_linear_17_10" x1="464.828" y1="1197" x2="1025.21" y2="1112.04" gradientUnits="userSpaceOnUse">
<stop stop-color="#E75B25"/>
<stop offset="1" stop-color="#F3B297"/>
</linearGradient>
</defs>
</svg>
